<?xml version="1.0" encoding="UTF-8" standalone="no"?>
<svg
   width="222.95999pt"
   height="247.92pt"
   viewBox="0 0 222.95999 247.92"
   version="1.1"
   id="svg76"
   xmlns="http://www.w3.org/2000/svg"
   xmlns:svg="http://www.w3.org/2000/svg">
  <defs
     id="defs20">
    <clipPath
       id="clip-0">
      <path
         clip-rule="nonzero"
         d="M 0 0 L 222.960938 0 L 222.960938 247.027344 L 0 247.027344 Z M 0 0 "
         id="path2" />
    </clipPath>
    <clipPath
       id="clip-1">
      <path
         clip-rule="nonzero"
         d="M 0 37 L 222.960938 37 L 222.960938 247.027344 L 0 247.027344 Z M 0 37 "
         id="path5" />
    </clipPath>
    <clipPath
       id="clip-2">
      <path
         clip-rule="nonzero"
         d="M 150 132 L 222.960938 132 L 222.960938 210 L 150 210 Z M 150 132 "
         id="path8" />
    </clipPath>
    <clipPath
       id="clip-3">
      <path
         clip-rule="nonzero"
         d="M 150 144 L 222.960938 144 L 222.960938 210 L 150 210 Z M 150 144 "
         id="path11" />
    </clipPath>
    <clipPath
       id="clip-4">
      <path
         clip-rule="nonzero"
         d="M 0 0 L 222.960938 0 L 222.960938 247.027344 L 0 247.027344 Z M 0 0 "
         id="path14" />
    </clipPath>
    <clipPath
       id="clip-5">
      <path
         clip-rule="nonzero"
         d="M 0 37 L 222.960938 37 L 222.960938 247.027344 L 0 247.027344 Z M 0 37 "
         id="path17" />
    </clipPath>
  </defs>
  <path
     fill-rule="nonzero"
     fill="rgb(97.24884%, 97.24884%, 97.24884%)"
     fill-opacity="1"
     d="M 110.734375 0.75 L 220.710938 53.558594 L 220.710938 192.34375 L 110.734375 245.148438 L 0.75 192.34375 L 0.75 53.558594 Z M 110.734375 0.75 "
     id="path22" />
  <path
     fill-rule="nonzero"
     fill="rgb(0%, 0%, 0%)"
     fill-opacity="0.502"
     d="M 110.726563 10.324219 L 212.089844 58.992188 L 212.089844 186.90625 L 110.726563 235.578125 L 9.363281 186.90625 L 9.363281 58.992188 Z M 110.726563 10.324219 "
     id="path24" />
  <g
     clip-path="url(#clip-0)"
     id="g28">
    <path
       fill="none"
       stroke-width="2"
       stroke-linecap="butt"
       stroke-linejoin="miter"
       stroke="#000000"
       stroke-opacity="0.502"
       stroke-miterlimit="10"
       d="M 147.46992,13.750194 282.46946,78.568079 V 248.92898 L 147.46992,313.75207 12.47038,248.92898 V 78.568079 Z m 0,0"
       transform="scale(0.750842)"
       id="path26" />
  </g>
  <g
     clip-path="url(#clip-1)"
     id="g32">
    <path
       fill="none"
       stroke-width="2"
       stroke-linecap="butt"
       stroke-linejoin="miter"
       stroke="#000000"
       stroke-opacity="0.502"
       stroke-miterlimit="10"
       d="M 12.47038,78.568079 147.46992,143.39116 282.46946,78.568079 M 147.46992,143.39116 v 170.36091"
       transform="scale(0.750842)"
       id="path30" />
  </g>
  <path
     fill-rule="nonzero"
     fill="rgb(43.528748%, 29.019165%, 76.858521%)"
     fill-opacity="1"
     stroke-width="1"
     stroke-linecap="butt"
     stroke-linejoin="miter"
     stroke="rgb(30.979919%, 20.779419%, 54.899597%)"
     stroke-opacity="1"
     stroke-miterlimit="10"
     d="M 147.469361 98.747996 L 214.971733 131.159539 L 214.971733 216.339989 L 147.469361 248.751532 L 79.972192 216.339989 L 79.972192 131.159539 Z M 147.469361 98.747996 "
     transform="matrix(0.750842, 0, 0, 0.750842, 0.375421, 0.375421)"
     id="path34" />
  <path
     fill="none"
     stroke-width="1"
     stroke-linecap="butt"
     stroke-linejoin="miter"
     stroke="rgb(30.979919%, 20.779419%, 54.899597%)"
     stroke-opacity="1"
     stroke-miterlimit="10"
     d="M 79.972192 131.159539 L 147.469361 163.571083 L 214.971733 131.159539 M 147.469361 163.571083 L 147.469361 248.751532 "
     transform="matrix(0.750842, 0, 0, 0.750842, 0.375421, 0.375421)"
     id="path36" />
  <path
     fill-rule="nonzero"
     fill="rgb(93.728638%, 15.289307%, 65.098572%)"
     fill-opacity="1"
     stroke-width="1"
     stroke-linecap="butt"
     stroke-linejoin="miter"
     stroke="rgb(63.139343%, 10.5896%, 43.919373%)"
     stroke-opacity="1"
     stroke-miterlimit="10"
     d="M 147.469361 13.749634 L 214.971733 46.161177 L 214.971733 131.341627 L 147.469361 163.747968 L 79.972192 131.341627 L 79.972192 46.161177 Z M 147.469361 13.749634 "
     transform="matrix(0.750842, 0, 0, 0.750842, 0.375421, 0.375421)"
     id="path38" />
  <path
     fill="none"
     stroke-width="1"
     stroke-linecap="butt"
     stroke-linejoin="miter"
     stroke="rgb(63.139343%, 10.5896%, 43.919373%)"
     stroke-opacity="1"
     stroke-miterlimit="10"
     d="M 79.972192 46.161177 L 147.469361 78.567518 L 214.971733 46.161177 M 147.469361 78.567518 L 147.469361 163.747968 "
     transform="matrix(0.750842, 0, 0, 0.750842, 0.375421, 0.375421)"
     id="path40" />
  <path
     fill-rule="nonzero"
     fill="rgb(53.729248%, 35.688782%, 94.898987%)"
     fill-opacity="1"
     stroke-width="1"
     stroke-linecap="butt"
     stroke-linejoin="miter"
     stroke="rgb(30.979919%, 20.779419%, 54.899597%)"
     stroke-opacity="1"
     stroke-miterlimit="10"
     d="M 79.972192 131.247982 L 147.469361 163.659525 L 147.469361 248.839975 L 79.972192 281.251518 L 12.46982 248.839975 L 12.46982 163.659525 Z M 79.972192 131.247982 "
     transform="matrix(0.750842, 0, 0, 0.750842, 0.375421, 0.375421)"
     id="path42" />
  <path
     fill="none"
     stroke-width="1"
     stroke-linecap="butt"
     stroke-linejoin="miter"
     stroke="rgb(30.979919%, 20.779419%, 54.899597%)"
     stroke-opacity="1"
     stroke-miterlimit="10"
     d="M 12.46982 163.659525 L 79.972192 196.071069 L 147.469361 163.659525 M 79.972192 196.071069 L 79.972192 281.251518 "
     transform="matrix(0.750842, 0, 0, 0.750842, 0.375421, 0.375421)"
     id="path44" />
  <path
     fill-rule="nonzero"
     fill="rgb(31.369019%, 66.268921%, 87.059021%)"
     fill-opacity="1"
     stroke-width="1"
     stroke-linecap="butt"
     stroke-linejoin="miter"
     stroke="rgb(19.219971%, 40.388489%, 52.938843%)"
     stroke-opacity="1"
     stroke-miterlimit="10"
     d="M 80.221911 88.748801 L 113.970496 104.959775 L 113.970496 147.542196 L 80.221911 163.747968 L 46.468124 147.542196 L 46.468124 104.959775 Z M 80.221911 88.748801 "
     transform="matrix(0.750842, 0, 0, 0.750842, 0.375421, 0.375421)"
     id="path46" />
  <path
     fill="none"
     stroke-width="1"
     stroke-linecap="butt"
     stroke-linejoin="miter"
     stroke="rgb(19.219971%, 40.388489%, 52.938843%)"
     stroke-opacity="1"
     stroke-miterlimit="10"
     d="M 46.468124 104.959775 L 80.221911 121.160344 L 113.970496 104.959775 M 80.221911 121.160344 L 80.221911 163.747968 "
     transform="matrix(0.750842, 0, 0, 0.750842, 0.375421, 0.375421)"
     id="path48" />
  <path
     fill-rule="nonzero"
     fill="rgb(28.239441%, 85.879517%, 84.709167%)"
     fill-opacity="1"
     d="M 186.375 142.847656 L 211.714844 155.019531 L 211.714844 186.988281 L 186.375 199.160156 L 161.03125 186.988281 L 161.03125 155.019531 Z M 186.375 142.847656 "
     id="path50" />
  <g
     clip-path="url(#clip-2)"
     id="g54">
    <path
       fill="none"
       stroke-width="1"
       stroke-linecap="butt"
       stroke-linejoin="miter"
       stroke="#309491"
       stroke-opacity="1"
       stroke-miterlimit="10"
       d="m 247.72144,189.75004 33.74858,16.21097 v 42.57722 l -33.74858,16.21097 -33.75379,-16.21097 v -42.57722 z m 0,0"
       transform="matrix(0.750842,0,0,0.750842,0.375421,0.375421)"
       id="path52" />
  </g>
  <g
     clip-path="url(#clip-3)"
     id="g58">
    <path
       fill="none"
       stroke-width="1"
       stroke-linecap="butt"
       stroke-linejoin="miter"
       stroke="#309491"
       stroke-opacity="1"
       stroke-miterlimit="10"
       d="m 213.96765,205.96101 33.75379,16.20057 33.74858,-16.20057 m -33.74858,16.20057 v 42.58762"
       transform="matrix(0.750842,0,0,0.750842,0.375421,0.375421)"
       id="path56" />
  </g>
  <path
     fill-rule="nonzero"
     fill="rgb(26.269531%, 81.17981%, 79.60968%)"
     fill-opacity="1"
     stroke-width="1"
     stroke-linecap="butt"
     stroke-linejoin="miter"
     stroke="rgb(18.818665%, 58.039856%, 56.858826%)"
     stroke-opacity="1"
     stroke-miterlimit="10"
     d="M 181.217946 189.750037 L 214.971733 205.961012 L 214.971733 248.53823 L 181.217946 264.749204 L 147.469361 248.53823 L 147.469361 205.961012 Z M 181.217946 189.750037 "
     transform="matrix(0.750842, 0, 0, 0.750842, 0.375421, 0.375421)"
     id="path60" />
  <path
     fill="none"
     stroke-width="1"
     stroke-linecap="butt"
     stroke-linejoin="miter"
     stroke="rgb(18.818665%, 58.039856%, 56.858826%)"
     stroke-opacity="1"
     stroke-miterlimit="10"
     d="M 147.469361 205.961012 L 181.217946 222.161581 L 214.971733 205.961012 M 181.217946 222.161581 L 181.217946 264.749204 "
     transform="matrix(0.750842, 0, 0, 0.750842, 0.375421, 0.375421)"
     id="path62" />
  <path
     fill-rule="nonzero"
     fill="rgb(29.019165%, 89.019775%, 87.449646%)"
     fill-opacity="1"
     stroke-width="1"
     stroke-linecap="butt"
     stroke-linejoin="miter"
     stroke="rgb(18.818665%, 58.039856%, 56.858826%)"
     stroke-opacity="1"
     stroke-miterlimit="10"
     d="M 214.722013 131.247982 L 248.470598 147.458956 L 248.470598 190.041377 L 214.722013 206.252351 L 180.968226 190.041377 L 180.968226 147.458956 Z M 214.722013 131.247982 "
     transform="matrix(0.750842, 0, 0, 0.750842, 0.375421, 0.375421)"
     id="path64" />
  <path
     fill="none"
     stroke-width="1"
     stroke-linecap="butt"
     stroke-linejoin="miter"
     stroke="rgb(18.818665%, 58.039856%, 56.858826%)"
     stroke-opacity="1"
     stroke-miterlimit="10"
     d="M 180.968226 147.458956 L 214.722013 163.659525 L 248.470598 147.458956 M 214.722013 163.659525 L 214.722013 206.252351 "
     transform="matrix(0.750842, 0, 0, 0.750842, 0.375421, 0.375421)"
     id="path66" />
  <g
     clip-path="url(#clip-4)"
     id="g70">
    <path
       fill="none"
       stroke-width="2"
       stroke-linecap="butt"
       stroke-linejoin="miter"
       stroke="#000000"
       stroke-opacity="1"
       stroke-miterlimit="10"
       d="M 147.46992,13.750194 282.46946,78.568079 V 248.92898 L 147.46992,313.75207 12.47038,248.92898 V 78.568079 Z m 0,0"
       transform="scale(0.750842)"
       id="path68" />
  </g>
  <g
     clip-path="url(#clip-5)"
     id="g74">
    <path
       fill="none"
       stroke-width="2"
       stroke-linecap="butt"
       stroke-linejoin="miter"
       stroke="#000000"
       stroke-opacity="1"
       stroke-miterlimit="10"
       d="M 12.47038,78.568079 147.46992,143.39116 282.46946,78.568079 M 147.46992,143.39116 v 170.36091"
       transform="scale(0.750842)"
       id="path72" />
  </g>
</svg>
