<?xml version="1.0" encoding="UTF-8" standalone="no"?>
<svg
   width="222.95999pt"
   height="322.07999pt"
   viewBox="0 0 222.95999 322.07999"
   version="1.1"
   id="svg76"
   xmlns="http://www.w3.org/2000/svg"
   xmlns:svg="http://www.w3.org/2000/svg">
  <defs
     id="defs20">
    <clipPath
       id="clip-0">
      <path
         clip-rule="nonzero"
         d="M 0 0 L 222.960938 0 L 222.960938 257 L 0 257 Z M 0 0 "
         id="path2" />
    </clipPath>
    <clipPath
       id="clip-1">
      <path
         clip-rule="nonzero"
         d="M 0 37 L 222.960938 37 L 222.960938 257 L 0 257 Z M 0 37 "
         id="path5" />
    </clipPath>
    <clipPath
       id="clip-2">
      <path
         clip-rule="nonzero"
         d="M 150 132 L 222.960938 132 L 222.960938 210 L 150 210 Z M 150 132 "
         id="path8" />
    </clipPath>
    <clipPath
       id="clip-3">
      <path
         clip-rule="nonzero"
         d="M 150 144 L 222.960938 144 L 222.960938 210 L 150 210 Z M 150 144 "
         id="path11" />
    </clipPath>
    <clipPath
       id="clip-4">
      <path
         clip-rule="nonzero"
         d="M 0 0 L 222.960938 0 L 222.960938 257 L 0 257 Z M 0 0 "
         id="path14" />
    </clipPath>
    <clipPath
       id="clip-5">
      <path
         clip-rule="nonzero"
         d="M 0 37 L 222.960938 37 L 222.960938 257 L 0 257 Z M 0 37 "
         id="path17" />
    </clipPath>
  </defs>
  <path
     fill-rule="nonzero"
     fill="rgb(97.24884%, 97.24884%, 97.24884%)"
     fill-opacity="1"
     d="M 111.125 0.75 L 221.101563 53.558594 L 221.101563 192.34375 L 111.125 245.148438 L 1.140625 192.34375 L 1.140625 53.558594 Z M 111.125 0.75 "
     id="path22" />
  <path
     fill-rule="nonzero"
     fill="rgb(0%, 0%, 0%)"
     fill-opacity="0.502"
     d="M 111.117188 10.324219 L 212.480469 58.992188 L 212.480469 186.90625 L 111.117188 235.578125 L 9.753906 186.90625 L 9.753906 58.992188 Z M 111.117188 10.324219 "
     id="path24" />
  <g
     clip-path="url(#clip-0)"
     id="g28">
    <path
       fill="none"
       stroke-width="2"
       stroke-linecap="butt"
       stroke-linejoin="miter"
       stroke="#000000"
       stroke-opacity="0.502"
       stroke-miterlimit="10"
       d="M 147.99017,13.750194 282.98971,78.568079 V 248.92898 L 147.99017,313.75207 12.99063,248.92898 V 78.568079 Z m 0,0"
       transform="scale(0.750842)"
       id="path26" />
  </g>
  <g
     clip-path="url(#clip-1)"
     id="g32">
    <path
       fill="none"
       stroke-width="2"
       stroke-linecap="butt"
       stroke-linejoin="miter"
       stroke="#000000"
       stroke-opacity="0.502"
       stroke-miterlimit="10"
       d="M 12.99063,78.568079 147.99017,143.39116 282.98971,78.568079 M 147.99017,143.39116 v 170.36091"
       transform="scale(0.750842)"
       id="path30" />
  </g>
  <path
     fill-rule="nonzero"
     fill="rgb(43.528748%, 29.019165%, 76.858521%)"
     fill-opacity="1"
     stroke-width="1"
     stroke-linecap="butt"
     stroke-linejoin="miter"
     stroke="rgb(0%, 0%, 0%)"
     stroke-opacity="1"
     stroke-miterlimit="10"
     d="M 147.98961 98.747996 L 215.491982 131.159539 L 215.491982 216.339989 L 147.98961 248.751532 L 80.492441 216.339989 L 80.492441 131.159539 Z M 147.98961 98.747996 "
     transform="matrix(0.750842, 0, 0, 0.750842, 0.375421, 0.375421)"
     id="path34" />
  <path
     fill="none"
     stroke-width="1"
     stroke-linecap="butt"
     stroke-linejoin="miter"
     stroke="rgb(0%, 0%, 0%)"
     stroke-opacity="1"
     stroke-miterlimit="10"
     d="M 80.492441 131.159539 L 147.98961 163.571083 L 215.491982 131.159539 M 147.98961 163.571083 L 147.98961 248.751532 "
     transform="matrix(0.750842, 0, 0, 0.750842, 0.375421, 0.375421)"
     id="path36" />
  <path
     fill-rule="nonzero"
     fill="rgb(93.728638%, 15.289307%, 65.098572%)"
     fill-opacity="1"
     stroke-width="1"
     stroke-linecap="butt"
     stroke-linejoin="miter"
     stroke="rgb(0%, 0%, 0%)"
     stroke-opacity="1"
     stroke-miterlimit="10"
     d="M 147.98961 13.749634 L 215.491982 46.161177 L 215.491982 131.341627 L 147.98961 163.747968 L 80.492441 131.341627 L 80.492441 46.161177 Z M 147.98961 13.749634 "
     transform="matrix(0.750842, 0, 0, 0.750842, 0.375421, 0.375421)"
     id="path38" />
  <path
     fill="none"
     stroke-width="1"
     stroke-linecap="butt"
     stroke-linejoin="miter"
     stroke="rgb(0%, 0%, 0%)"
     stroke-opacity="1"
     stroke-miterlimit="10"
     d="M 80.492441 46.161177 L 147.98961 78.567518 L 215.491982 46.161177 M 147.98961 78.567518 L 147.98961 163.747968 "
     transform="matrix(0.750842, 0, 0, 0.750842, 0.375421, 0.375421)"
     id="path40" />
  <path
     fill-rule="nonzero"
     fill="rgb(53.729248%, 35.688782%, 94.898987%)"
     fill-opacity="1"
     stroke-width="1"
     stroke-linecap="butt"
     stroke-linejoin="miter"
     stroke="rgb(0%, 0%, 0%)"
     stroke-opacity="1"
     stroke-miterlimit="10"
     d="M 80.492441 131.247982 L 147.98961 163.659525 L 147.98961 248.839975 L 80.492441 281.251518 L 12.990069 248.839975 L 12.990069 163.659525 Z M 80.492441 131.247982 "
     transform="matrix(0.750842, 0, 0, 0.750842, 0.375421, 0.375421)"
     id="path42" />
  <path
     fill="none"
     stroke-width="1"
     stroke-linecap="butt"
     stroke-linejoin="miter"
     stroke="rgb(0%, 0%, 0%)"
     stroke-opacity="1"
     stroke-miterlimit="10"
     d="M 12.990069 163.659525 L 80.492441 196.071069 L 147.98961 163.659525 M 80.492441 196.071069 L 80.492441 281.251518 "
     transform="matrix(0.750842, 0, 0, 0.750842, 0.375421, 0.375421)"
     id="path44" />
  <path
     fill-rule="nonzero"
     fill="rgb(31.369019%, 66.268921%, 87.059021%)"
     fill-opacity="1"
     stroke-width="1"
     stroke-linecap="butt"
     stroke-linejoin="miter"
     stroke="rgb(0%, 0%, 0%)"
     stroke-opacity="1"
     stroke-miterlimit="10"
     d="M 80.742161 88.748801 L 114.490746 104.959775 L 114.490746 147.542196 L 80.742161 163.747968 L 46.988374 147.542196 L 46.988374 104.959775 Z M 80.742161 88.748801 "
     transform="matrix(0.750842, 0, 0, 0.750842, 0.375421, 0.375421)"
     id="path46" />
  <path
     fill="none"
     stroke-width="1"
     stroke-linecap="butt"
     stroke-linejoin="miter"
     stroke="rgb(0%, 0%, 0%)"
     stroke-opacity="1"
     stroke-miterlimit="10"
     d="M 46.988374 104.959775 L 80.742161 121.160344 L 114.490746 104.959775 M 80.742161 121.160344 L 80.742161 163.747968 "
     transform="matrix(0.750842, 0, 0, 0.750842, 0.375421, 0.375421)"
     id="path48" />
  <path
     fill-rule="nonzero"
     fill="rgb(28.239441%, 85.879517%, 84.709167%)"
     fill-opacity="1"
     d="M 186.765625 142.847656 L 212.105469 155.019531 L 212.105469 186.988281 L 186.765625 199.160156 L 161.421875 186.988281 L 161.421875 155.019531 Z M 186.765625 142.847656 "
     id="path50" />
  <g
     clip-path="url(#clip-2)"
     id="g54">
    <path
       fill="none"
       stroke-width="1"
       stroke-linecap="butt"
       stroke-linejoin="miter"
       stroke="#000000"
       stroke-opacity="1"
       stroke-miterlimit="10"
       d="m 248.24169,189.75004 33.74858,16.21097 v 42.57722 L 248.24169,264.7492 214.4879,248.53823 v -42.57722 z m 0,0"
       transform="matrix(0.750842,0,0,0.750842,0.375421,0.375421)"
       id="path52" />
  </g>
  <g
     clip-path="url(#clip-3)"
     id="g58">
    <path
       fill="none"
       stroke-width="1"
       stroke-linecap="butt"
       stroke-linejoin="miter"
       stroke="#000000"
       stroke-opacity="1"
       stroke-miterlimit="10"
       d="m 214.4879,205.96101 33.75379,16.20057 33.74858,-16.20057 m -33.74858,16.20057 v 42.58762"
       transform="matrix(0.750842,0,0,0.750842,0.375421,0.375421)"
       id="path56" />
  </g>
  <path
     fill-rule="nonzero"
     fill="rgb(26.269531%, 81.17981%, 79.60968%)"
     fill-opacity="1"
     stroke-width="1"
     stroke-linecap="butt"
     stroke-linejoin="miter"
     stroke="rgb(0%, 0%, 0%)"
     stroke-opacity="1"
     stroke-miterlimit="10"
     d="M 181.738195 189.750037 L 215.491982 205.961012 L 215.491982 248.53823 L 181.738195 264.749204 L 147.98961 248.53823 L 147.98961 205.961012 Z M 181.738195 189.750037 "
     transform="matrix(0.750842, 0, 0, 0.750842, 0.375421, 0.375421)"
     id="path60" />
  <path
     fill="none"
     stroke-width="1"
     stroke-linecap="butt"
     stroke-linejoin="miter"
     stroke="rgb(0%, 0%, 0%)"
     stroke-opacity="1"
     stroke-miterlimit="10"
     d="M 147.98961 205.961012 L 181.738195 222.161581 L 215.491982 205.961012 M 181.738195 222.161581 L 181.738195 264.749204 "
     transform="matrix(0.750842, 0, 0, 0.750842, 0.375421, 0.375421)"
     id="path62" />
  <path
     fill-rule="nonzero"
     fill="rgb(29.019165%, 89.019775%, 87.449646%)"
     fill-opacity="1"
     stroke-width="1"
     stroke-linecap="butt"
     stroke-linejoin="miter"
     stroke="rgb(0%, 0%, 0%)"
     stroke-opacity="1"
     stroke-miterlimit="10"
     d="M 215.242262 131.247982 L 248.990847 147.458956 L 248.990847 190.041377 L 215.242262 206.252351 L 181.488475 190.041377 L 181.488475 147.458956 Z M 215.242262 131.247982 "
     transform="matrix(0.750842, 0, 0, 0.750842, 0.375421, 0.375421)"
     id="path64" />
  <path
     fill="none"
     stroke-width="1"
     stroke-linecap="butt"
     stroke-linejoin="miter"
     stroke="rgb(0%, 0%, 0%)"
     stroke-opacity="1"
     stroke-miterlimit="10"
     d="M 181.488475 147.458956 L 215.242262 163.659525 L 248.990847 147.458956 M 215.242262 163.659525 L 215.242262 206.252351 "
     transform="matrix(0.750842, 0, 0, 0.750842, 0.375421, 0.375421)"
     id="path66" />
  <g
     clip-path="url(#clip-4)"
     id="g70">
    <path
       fill="none"
       stroke-width="2"
       stroke-linecap="butt"
       stroke-linejoin="miter"
       stroke="#000000"
       stroke-opacity="1"
       stroke-miterlimit="10"
       d="M 147.99017,13.750194 282.98971,78.568079 V 248.92898 L 147.99017,313.75207 12.99063,248.92898 V 78.568079 Z m 0,0"
       transform="scale(0.750842)"
       id="path68" />
  </g>
  <g
     clip-path="url(#clip-5)"
     id="g74">
    <path
       fill="none"
       stroke-width="2"
       stroke-linecap="butt"
       stroke-linejoin="miter"
       stroke="#000000"
       stroke-opacity="1"
       stroke-miterlimit="10"
       d="M 12.99063,78.568079 147.99017,143.39116 282.98971,78.568079 M 147.99017,143.39116 v 170.36091"
       transform="scale(0.750842)"
       id="path72" />
  </g>
</svg>
