<?xml version="1.0" encoding="UTF-8"?>
<!DOCTYPE svg PUBLIC "-//W3C//DTD SVG 1.1//EN" "http://www.w3.org/Graphics/SVG/1.1/DTD/svg11.dtd">
<svg xmlns="http://www.w3.org/2000/svg" xmlns:xlink="http://www.w3.org/1999/xlink" version="1.1" width="295px" height="328px" viewBox="-0.5 -0.5 295 328"><defs/><g><path d="M 146.48 1 L 292.96 71.33 L 292.96 256.17 L 146.48 326.5 L 0.01 256.17 L 0.01 71.33 Z" fill="#f8f8f8" stroke="none" pointer-events="none"/><path d="M 146.47 13.75 L 281.47 78.57 L 281.47 248.93 L 146.47 313.75 L 11.47 248.93 L 11.47 78.57 Z" fill-opacity="0.5" fill="#000000" stroke="rgb(0, 0, 0)" stroke-opacity="0.5" stroke-width="2" stroke-miterlimit="10" pointer-events="none"/><path d="M 11.47 78.57 L 146.47 143.39 L 281.47 78.57 M 146.47 143.39 L 146.47 313.75" fill="none" stroke="rgb(0, 0, 0)" stroke-opacity="0.5" stroke-width="2" stroke-miterlimit="10" pointer-events="none"/><path d="M 146.47 98.75 L 213.97 131.16 L 213.97 216.34 L 146.47 248.75 L 78.97 216.34 L 78.97 131.16 Z" fill="#6f4ac4" stroke="rgb(0, 0, 0)" stroke-miterlimit="10" pointer-events="none"/><path d="M 78.97 131.16 L 146.47 163.57 L 213.97 131.16 M 146.47 163.57 L 146.47 248.75" fill="none" stroke="rgb(0, 0, 0)" stroke-miterlimit="10" pointer-events="none"/><path d="M 146.47 13.75 L 213.97 46.16 L 213.97 131.34 L 146.47 163.75 L 78.97 131.34 L 78.97 46.16 Z" fill="#ef27a6" stroke="rgb(0, 0, 0)" stroke-miterlimit="10" pointer-events="none"/><path d="M 78.97 46.16 L 146.47 78.57 L 213.97 46.16 M 146.47 78.57 L 146.47 163.75" fill="none" stroke="rgb(0, 0, 0)" stroke-miterlimit="10" pointer-events="none"/><path d="M 78.97 131.25 L 146.47 163.66 L 146.47 248.84 L 78.97 281.25 L 11.47 248.84 L 11.47 163.66 Z" fill="#895bf2" stroke="rgb(0, 0, 0)" stroke-miterlimit="10" pointer-events="none"/><path d="M 11.47 163.66 L 78.97 196.07 L 146.47 163.66 M 78.97 196.07 L 78.97 281.25" fill="none" stroke="rgb(0, 0, 0)" stroke-miterlimit="10" pointer-events="none"/><path d="M 79.22 88.75 L 112.97 104.96 L 112.97 147.54 L 79.22 163.75 L 45.47 147.54 L 45.47 104.96 Z" fill="#50a9de" stroke="rgb(0, 0, 0)" stroke-miterlimit="10" pointer-events="none"/><path d="M 45.47 104.96 L 79.22 121.16 L 112.97 104.96 M 79.22 121.16 L 79.22 163.75" fill="none" stroke="rgb(0, 0, 0)" stroke-miterlimit="10" pointer-events="none"/><path d="M 246.72 189.75 L 280.47 205.96 L 280.47 248.54 L 246.72 264.75 L 212.97 248.54 L 212.97 205.96 Z" fill="#48dbd8" stroke="rgb(0, 0, 0)" stroke-miterlimit="10" pointer-events="none"/><path d="M 212.97 205.96 L 246.72 222.16 L 280.47 205.96 M 246.72 222.16 L 246.72 264.75" fill="none" stroke="rgb(0, 0, 0)" stroke-miterlimit="10" pointer-events="none"/><path d="M 180.22 189.75 L 213.97 205.96 L 213.97 248.54 L 180.22 264.75 L 146.47 248.54 L 146.47 205.96 Z" fill="#43cfcb" stroke="rgb(0, 0, 0)" stroke-miterlimit="10" pointer-events="none"/><path d="M 146.47 205.96 L 180.22 222.16 L 213.97 205.96 M 180.22 222.16 L 180.22 264.75" fill="none" stroke="rgb(0, 0, 0)" stroke-miterlimit="10" pointer-events="none"/><path d="M 213.72 131.25 L 247.47 147.46 L 247.47 190.04 L 213.72 206.25 L 179.97 190.04 L 179.97 147.46 Z" fill="#4ae3df" stroke="rgb(0, 0, 0)" stroke-miterlimit="10" pointer-events="none"/><path d="M 179.97 147.46 L 213.72 163.66 L 247.47 147.46 M 213.72 163.66 L 213.72 206.25" fill="none" stroke="rgb(0, 0, 0)" stroke-miterlimit="10" pointer-events="none"/><path d="M 146.47 13.75 L 281.47 78.57 L 281.47 248.93 L 146.47 313.75 L 11.47 248.93 L 11.47 78.57 Z" fill="none" stroke="rgb(0, 0, 0)" stroke-width="2" stroke-miterlimit="10" pointer-events="none"/><path d="M 11.47 78.57 L 146.47 143.39 L 281.47 78.57 M 146.47 143.39 L 146.47 313.75" fill="none" stroke="rgb(0, 0, 0)" stroke-width="2" stroke-miterlimit="10" pointer-events="none"/></g></svg>